<?xml version="1.0" encoding="utf-8"?>
<!-- Generator: Adobe Illustrator 19.2.1, SVG Export Plug-In . SVG Version: 6.00 Build 0)  -->
<svg version="1.1" id="layer" xmlns="http://www.w3.org/2000/svg" xmlns:xlink="http://www.w3.org/1999/xlink" x="0px" y="0px"
	 viewBox="0 0 652 652" style="enable-background:new 0 0 652 652;" xml:space="preserve">
<style type="text/css">
	.st0{fill-rule:evenodd;clip-rule:evenodd;}
	.st1{fill-rule:evenodd;clip-rule:evenodd;fill:#58B059;}
	.st2{fill:#58B059;}
</style>
<g>
	<g>
		<path class="st0" d="M471,276.6c-3,1.8-5.2,4.3-7.5,6.8c-3.9,2.3-8.1,8.6-13.5,9.5c-5.2,0.9-9-1.5-13.3-2.8
			c-0.1,1.3,0.7,1.8,1,2.8c0.4,1,1.2,1.6,2,2.3c0.9,1.1,1.9,2.1,3.5,2.5c2.2,0.6,0.7,3.3,0.2,5.3c-0.7,2.8-1,5-0.2,7.5
			c2.7,9.5,8.9,19.1,11.5,28.3c0.5,1.9,1.5,3.4,3.3,4c3.3,2.7,10.6,1.4,15,3c1.3,1.9-0.4,4.4-0.5,5.5c1.9,0.2,2.8-0.7,4-1.3
			c1.2-0.3,1.3-1.5,2.5-1.8c1.3,1.5,2.7,2.9,4.3,4.3c1.4,1.9,2.9,3.8,3.3,6.8v3.3c-0.1,1.7-0.7,2.9-1.5,4c-3.4,4.4-7.3,8.3-11.3,12
			c3.7-0.2,11.9,1.9,13-1.8c1.3-1.8,2.8-3.6,4.3-5.3c1.2-1.1,2.5-2,3-3.8c0.4-0.5,0.7-1.2,1.3-1.5c1.2-1.1,2.5-2,3-3.8
			c0.9-0.9,1.3-2.2,2.5-2.8c5.7,0.7,12.4,5.5,8.8,11.5c-1.1,1.1-2.2,2.1-3.3,3.3c-1.6,1.4-3.3,2.5-5.3,3.5c0-0.3,0.4-0.4,0-0.5
			c-0.1,0.5-1,0.2-0.7,1c3.5,0,10.6,1.4,12.5-1c13.7-9.9,30-20.9,44.6-31.1c2-1.4,4.9-4.3,6.5-4.5c3.7-0.5,7.4,2.3,10.5,3.3
			c0.1,0.5,1.8,1.3,3,1.5c4.1,2.3,7.3,5.5,8.5,10.8c-0.6,1.2-0.1,3.4-0.3,5c-0.7,4.9-2.3,8.9-4.3,12.5c-0.5,0.2-1.5,2.2-1.8,3.5
			c2.6,0.3,7.5,0.7,9.8-0.2c0-0.3,0-0.7-0.3-0.8c2.1-9.8,3.9-20,6.5-29.3c6.6,1.5,12.2,3.9,13.5,10.5v3.8c-0.3,3-1.2,5.4-2.5,7.5
			c-0.6,0.4-1.7,2.5-2,4c-0.4,1.1-1.1,2.1-1.8,3h-0.3c-0.2,0.6-1,0.7-0.7,1.8c3.2-0.2,7,0.3,9.8-0.2v-0.7c1.9-6.5,3.7-13,5.3-19.8
			c1.3-1.2-0.3-3.2-1.3-3.8c-0.2-0.1-0.3-0.2-0.3-0.5c-0.2-1.2-1.1-2.9-1.5-3c-1.5-2.9-2.7-6.1-3-10.3c-0.2-1.9,0.3-4.5-0.2-6
			c0.1-1.9,0-4,1-5c0.3,0.1,0.6,0.3,0.7,0.5c1.6,1.8,3.2,3.4,5,5c1.1,0.6,2.2,3.9,3,3.3c-1.2-8.7-4.1-15.7-8.5-21.3
			c0-0.3-0.3-0.3-0.2-0.8c-1-1.2-2.1-2.3-3.3-3.3c-0.3,0-0.5-0.1-0.8-0.2c-1.8-1.5-3.8-2.7-5.8-4c-1.1-1.1-2.6-1.9-4.5-2.3
			c-17.4-6.7-39.4-8.8-54.9-17.5c0.4-0.2-3-2-2.3-1c-4.1-2-7.9-4.3-11.5-6.8c-0.9-1-1.9-1.9-3.5-2.3c-1.6-0.9-3.1-1.9-4.5-3
			c-0.9-1-1.9-1.9-3.5-2.3c-2.4-1.4-4.9-2.8-7.3-4.3c-1.1-1.1-2.6-1.9-4.5-2.2c-2.2-0.8-4.5-1.5-7-2c-0.4-0.9-6.2-0.5-4.5-0.3v0.3
			C483.4,265.9,477.5,271.5,471,276.6 M462,327.4h-2.5c-0.3,0-0.4-0.1-0.5-0.2c-1.1-1-1.8-2.4-1.5-4.8v-0.5
			C461.4,316.7,468.1,325.3,462,327.4"/>
		<path class="st1" d="M97,367c0.2,1.2,0.4,0.3,0.7,1.8"/>
		<path class="st1" d="M95.7,364.2c-0.3,0-0.7,0-0.7,0.2c0.2,0,0.3,0.4,0,0.5c0,0.7,0.5,1,0.5,1.8c0.2,0,0.3,0.2,0.5,0.3
			c0-0.3-0.2-0.3-0.2-0.5c0.2-0.8,0-1,0.2-1.3"/>
		<path class="st1" d="M88.2,356c-0.4-0.1,0-0.3,0.2-0.2c0-0.3-0.1-0.4-0.2-0.5c0.3-0.5,1-0.5,1.3-1c-0.1-0.3-0.4,0-0.5,0.3h-0.2
			c-0.9,0-1.1,0.7-2,0.7c0.7-0.7,1.8-0.9,2.5-1.5h0.2c0.7-1.3,2.8-1.3,2.3-3.8c-0.9,3.9-4.8,4.7-8.3,6v-56.6h-9.6
			c-1.9-0.2-3.6-0.3-5.1,0c-0.4,0.1-0.8,0.1-1.1,0.2c0.3-0.1,0.7-0.2,1.1-0.2h-1.8c-3.4,7.5-7.6,15.3-11.3,22.5
			c-1.3,2.6-2.1,5.8-4,7c-0.1-0.2-0.3-0.4-0.3-0.7c-1.7-3.1-3-6.7-5-9.5c-0.1-0.2-0.3-0.4-0.2-0.8c-1.7-3.1-3-6.7-5-9.5
			c-0.1-0.2-0.3-0.4-0.3-0.8c-1.4-2.7-2.7-5.7-4.3-8.3h-16v79.2h17.5c0.6-12.5,0.1-26.1,0.2-39.1c2.7,4.3,4.7,9.3,7.5,13.5v0.3
			c1.4,2.6,2.6,5.4,4.3,7.8v0.2c0.7,0.9,0.8,2.3,1.7,2.9c0,0,0,0.1,0,0.1c0,0,0,0,0,0c0.2,0.1,0.3,0.2,0.5,0.3c0.8-2.3,2-4.2,3-6.3
			c-0.1-0.4,0.2-0.4,0.3-0.8c3.7-5.9,6.7-13.9,10.3-19v40.1h17.5c-0.7-10.7,3.2-16.7,8.8-21c0,0.3,0,0.7,0.2,0.8
			c0.2-0.9-0.2-1.3-0.7-0.8c0.1-0.3,0.3-0.5,0.7-0.5c0.4,1.8,0.8,3.5,1.3,5.3c0.3,0.4,0.2,1.3,0.7,1.5"/>
		<path class="st1" d="M93.7,356.7c-0.3-0.2-0.3-0.6-0.7-0.5c0.3,0.3,0.1,0.4,0,0.7c-0.3,0.7-0.3-0.4,0-0.5c-0.2,0.2-1.2,0.6-1-0.3
			c-0.1-0.3-0.3-0.5-0.7-0.5c0.4-0.4,0.8-0.5-0.2-0.5c-0.1,0.6-0.3,1.1-0.8,1.3c0.2,0.4,0.4-0.1,1,0.2c0.1,0.5-0.2,0.7-0.2,1
			c-0.4-0.2,0-0.5,0-0.8c-0.5-0.1-0.7,0.2-1,0.3c-0.1,1.2-0.4-0.2-0.2-0.7"/>
		<path class="st1" d="M149.8,355c-0.1,0.1-0.3,0.2-0.4,0.3C149.6,355.2,149.8,355.2,149.8,355"/>
		<path class="st1" d="M89.7,356.5c-0.1,0.5,0.2,2,0.2,0.7c0.3-0.1,0.5-0.4,1-0.2c0,0.3-0.4,0.6,0,0.7c0.1-0.3,0.4-0.5,0.2-1
			c-0.6-0.3-0.8,0.1-1-0.2c0.5-0.2,0.7-0.7,0.7-1.3c1.1,0,0.6,0.1,0.2,0.5c0.4,0,0.6,0.2,0.8,0.5c-0.2,0.9,0.8,0.4,1,0.2
			c-0.3,0.1-0.3,1.2,0,0.5c0.1-0.4,0.3-0.4,0-0.7c0.5-0.1,0.5,0.3,0.7,0.5"/>
		<path class="st2" d="M419.7,321.4c-6-0.4-13.8-0.4-19.8,0c-0.3,0-0.4,0.1-0.5,0.2c-2.5-0.1-4.3,0.4-6,1c-9.3,2-16.6,9.3-18.8,18.5
			h0c0,1.1-0.7,1.5-0.5,2.8c-0.2,0-0.2,0.3-0.3,0.5c-0.2,1.2-3.2,6.5-3.8,5.8c-0.6-0.9,0.7-2.3-0.2-4.3c0-0.2-0.1-0.2-0.2-0.2
			c0.2-1.9-0.4-2.9-0.8-4.3c-1.8-9-8.6-16.3-16.9-18.9c0,0,0.1,0,0.1,0.1c-0.8-0.2-1.6-0.5-2.3-0.7c-1.4-1-3.4-1.3-5.8-1.3h-0.5
			c-0.4-0.4-2.4-0.4-2.8,0h-0.5c-0.2,0-0.3-0.3-0.5-0.3v-20.8c-5-0.6-11.1-0.1-16.5-0.2v39.8c-0.2,1.8-0.5,3.4-1.3,4.5
			c0.4-2.3-0.8,1.6-1.3,2.2v0.3c-1.7,2.1-3.5,5.5-5.8,6.3v-1v-0.2c0.4-0.6,0.4-2.9,0-3.5c0-0.4,0-0.7-0.3-0.7c0-2.9-0.5-5.2-1.3-7.3
			c0.1-1-0.6-1.3-0.5-2.3c-2-5.5-5.9-11.2-10.5-14c-0.4-0.3-1.8-1.2-1.8-0.5c-1.1-0.4-1.8-1.2-3-1.5h-0.2c-0.7-0.7-2.5-1.5-3.5-1h-1
			h-0.5c0-0.2-0.3-0.2-0.5-0.2c0-0.2-0.3-0.2-0.5-0.2c-0.3-0.4-2.4-0.4-2.8,0c-0.2-0.1-0.2,0.1-0.2,0.2c-0.6,0.1-1.8-0.3-2,0.2h-0.3
			c-1.6,0-2.4,0.8-3.5,1.3h-0.5c0-0.3,0.4-0.2,0.5-0.5c-1.8,0-3.2,1.6-4.8,2.7c0.1-0.1,0.2-0.1,0.3-0.2c-0.1,0.1-0.2,0.1-0.3,0.2
			c0,0,0,0,0,0c-0.1,0.1-0.2,0.1-0.3,0.2c-0.1,0.1-0.2,0.1-0.3,0.2c-0.1,0.1-0.2,0.1-0.3,0.2c0,0,0,0,0,0c-1.1,0.5-2.7,0.8-4.4,0.9
			c-0.1,0-0.1,0-0.2,0c-0.3,0-0.5,0-0.8,0c0.1,0,0.3,0,0.4,0c-0.4,0-0.9,0-1.3,0c-0.5,0-1.1,0-1.6,0c0.4,0,0.8,0,1.2,0
			c-4.2-0.1-8.6-0.9-12.6-0.6v-25.1c-4.9-0.6-10.9-0.1-16.3-0.2c-0.7,7.9,0.2,17.6-0.5,25.6H235c-0.6,2-0.1,5.1-0.2,7.5h6.3
			c0.3,5.3-0.3,9.7-2,13v0.3c-2.2,4-5.9,7.6-9.7,9.6c0.1,0,0.2-0.1,0.4,0c-0.1,0.3-0.5,0.2-0.5,0.5c-0.4-0.1-0.4,0.2-0.7,0.3
			c-0.6,0.3-1.5,0.2-2,0.5v-34.8c-4.3-1-11.3-0.5-16-0.2v18.3c-0.1,0.4,0.3,1.3-0.2,1.3c0-1.4-1.2,2.7-1.5,3.5
			c-2.4,5.6-6.5,9.9-12.8,11.5c-0.2-6.7,0.3-14-0.2-20.3c0-0.3-0.1-0.4-0.3-0.5c0-0.3-0.1-0.4-0.2-0.5v-1.3
			c-0.1-5.8-4.4-10.9-10-11.3c-1.3-0.1-1.9-0.8-3.5-0.5c0-0.2-0.3-0.2-0.5-0.2c-0.7-0.4-3.1-0.4-3.8,0c-0.3,0-0.4,0.1-0.5,0.2h-0.8
			c-3.4-0.3-5.3,0.9-7.5,1.8c0-0.8,0.2-1.8-0.2-2.2c-5.2,0.2-11-0.3-15.8,0.2c0.1,1.4,0.2,2.8,0.2,4.1v7c-0.4,7.8-2.1,14.4-5.9,18.6
			c-0.3,0.3-0.7,0.7-1,1c-2,1.8-4.5,3.1-7.6,3.7c-0.2-11.4,0.3-23.4-0.2-34.3c-5.9-0.4-13.6-0.4-19.5,0c-0.3,0-0.4,0.1-0.5,0.2
			c-0.4,0-0.7,0-0.8,0.3h-1.8c-11.9,1.4-19.6,9.1-22.8,20c-0.6,1.3-0.8,2.9-0.7,4.8c-0.6,0.4-0.1,1.9-0.2,2.8v0.5
			c0.5,2.5-1.6,2.4-2.3,3.8h-0.2c-0.7,0.6-1.8,0.8-2.5,1.5c0.9,0,1.1-0.7,2-0.7H89c0.1-0.3,0.4-0.6,0.5-0.2c-0.3,0.5-1,0.5-1.3,1
			c0.2,0.1,0.3,0.2,0.2,0.5c-0.3,0-0.6,0.1-0.2,0.3l5.4,6.7c-0.1-0.4-0.3-0.8-0.4-1.2c-0.4-1-0.8-1.9-0.7-3.3
			c0.2-0.9-0.2-1.3-0.7-0.7c0.1-0.3,0.3-0.5,0.7-0.5c0.4,1.8,0.8,3.5,1.3,5.3c0.2,0.3,0.3,0.7,0.4,1.1l0.4,0.5
			c-0.2-0.1-0.3-0.3-0.4-0.5l-0.5-0.6c2.2,6.8,6.1,11.9,12.4,14.6h0.5c2,0.1,2.7,1.5,5,1.3c0,0.2,0.1,0.2,0.3,0.2
			c1.7,0.4,5.1,0.4,6.8,0h0.2c3.1,0.1,5.2-2.1,6.8-2.8v2.5h12.5c0.4-1.8,0.4-5.2,0-7c-0.3-1.3,0.7-1.3,0.5-2.5
			c0.5-0.3,0.4-1.3,0.8-1.8c2.1-5.1,6.5-9.1,10.1-11.9c-0.1,0-0.3,0.1-0.3,0.2c0-0.2,0.3-0.2,0.2-0.5c0.7,0.1,0.8-0.6,1.5-0.5
			c0.9,0.2,1-0.4,1.8-0.2v24.3c5.3-0.2,11.4,0.3,16.3-0.2c-0.2-3.8,0.3-8.4-0.3-11.8v-0.2c0.4-6.7,0.4-15.1,0-21.8
			c-0.1-0.9,0.1-1.4,0.3-2c0.4-0.8,0.5-1.8,0.5-3v-0.2h0.3c0,0.1,0,0.2,0,0.2c1.3-1.5,1.6-5.4,4.8-6c6.8-1.3,5.5,5.9,5.5,12.3
			c0,10.2-0.2,25.4,0.2,32.8c5.2-0.2,11,0.3,15.8-0.2c-0.2-2.3,0.3-5.3-0.2-7.3c-0.2-0.9,0.4-1.1,0.2-2h0.3c0.1,0.2,0,0.5,0.2,0.5
			c2.2-7.5,6.9-12.6,14-15.3v24.3c5.3-0.2,11.2,0.3,16-0.2v-7c0.2-0.3,0.3-0.7,0.3-1.3c0-0.4-0.1-1,0.2-1c0.1,0.2,0,0.5,0.3,0.5
			c1.6-7,6.2-11,11.3-14.5c0.2-0.1,0.4-0.3,0.8-0.2c3.6-2.6,0.7,7.7,2,9.5c0,0.2,0.1,0.2,0.2,0.3c0,0.3,0.1,0.4,0.2,0.5
			c-0.2,0.9,0.4,1,0.3,1.8c-0.4,0-0.1-0.7-0.5-0.8c1.9,8,9.2,11.8,17.5,12.5h1.5c0,0.2,0.1,0.2,0.3,0.2v0.3c2,0.6,2.8-1.5,3.4-3.3
			c0-0.1,0-0.2,0-0.3c0,0.1,0,0.2,0,0.3c0.1-0.3,0.2-0.6,0.3-0.9c-4.7-0.2-6.6-3.8-7-8.3c-0.1-1.5-0.2-3.3-0.2-5.1
			c0,1.7,0,3.4,0,5.1c0-1.7,0-3.4,0-5.1v-0.1c0-2,0-4.1,0-6.1v0c0-0.2,0-0.4,0-0.7c0,0.2,0,0.4,0,0.7c0.1-8.2,0.6-17.2,0.5-22.7
			h11.8c-1.6,3.5-3.7,6.5-3.8,11.5c0,1,0,1.8-0.2,2.5c-0.2,0-0.2,0.3-0.3,0.5c-0.4,1-0.4,3.7,0,4.8c0,0.3,0.1,0.4,0.3,0.5
			c0,1.4,0,2.8,0.5,3.8v0.2c0.1,1.1,0.3,2.1,0.7,2.8c0.3,0.7,0.6,1.4,0.7,2.2c-0.3,0-0.2-0.4-0.5-0.5c2.8,7.9,7.7,13.7,15.3,16.8
			c1-0.1,1.3,0.6,2.3,0.5c0.8,0.3,1.6,0.6,2.8,0.5c0,0.2,0.1,0.2,0.3,0.2c1.8,0.4,5.5,0.5,6.8-0.5c0.4,0,1,0.1,1-0.3
			c0.7-0.3,1.4-0.6,2.3-0.7c0,0.3-0.4,0.2-0.5,0.5c8.2-2.9,13.2-9,16-17.2c0,0,0,0,0,0c0,0,0,0,0.1-0.1h0c1.2-1.5,2.8-2.6,4.3-3.7
			c-1.5,1.1-3.2,2.2-4.3,3.7c3.1-2.4,5.8-5.3,9.9-6.7v6.3c0,2,0.1,5.6,0.3,2h0.2v1c0.1,0.9-0.2,2.2,0.3,2.8v1
			c1.7,6.1,5.6,9.9,11.8,11.5h1c0.3,0.2,0.7,0.3,1.3,0.2h2v0.2c-2.5-0.1-0.8,0.4,0.7,0.3c3.6,0.1,6.9-0.1,9.3-1.3
			c0.6-0.4,1.8-0.4,2.3-1h0.3h0.5c7.4-3.2,12.5-8.5,15.3-16.3c0-0.8,0.3-1.2,0.5-1.8c1.1-1.5,2.9-3.4,4.8-3.3c0,1.7,0.3,3,0.8,4.3
			c0.2,0.3,0.2,0.9,0.5,1.3v0.5c-0.4,0-0.1-0.7-0.5-0.7c0.9,3.8,3.3,9.1,6.5,12.3c1.5,1.5,5.8,5.2,7.8,4.5c-0.1,0.1-0.5-0.1-0.5-0.2
			h0.3h0.2c0.2,0.5,1.3,0.2,1.5,0.7c-0.2,0.1-0.5,0-0.5,0.3c1.2,0,1.8,0.7,3.3,0.5h0.2c1.7,0.4,5.1,0.4,6.8,0h0.3
			c3.1,0.1,5.2-2.1,6.8-2.8v2.5h12.5C420,360,419.5,340.4,419.7,321.4 M116,367c0,0-8-0.3-8-15.5c0-19.6,11.3-18.5,11.3-18.5h3.3
			c0,0,0.3,19.8,0.3,26.3C122.8,365.7,116,367,116,367 M290.3,367.3c-5.1,0-9.2-8.1-9.2-18.2c0-10,4.1-18.2,9.2-18.2
			c5.1,0,9.2,8.1,9.2,18.2C299.6,359.2,295.4,367.3,290.3,367.3 M344,367c-4.4,0-4.3-4.9-4.3-4.9v-29.7c0,0-2.2-0.5,2.8-0.5
			c5,0,11.2,7.6,11.2,18.3S348.4,367,344,367 M397.6,367c0,0-8-0.3-8-15.5c0-19.6,11.3-18.5,11.3-18.5h3.3c0,0,0.2,19.8,0.2,26.3
			C404.4,365.7,397.6,367,397.6,367"/>
		<path class="st1" d="M96,365.2c-0.3,0.2-0.1,0.5-0.2,1.3c0,0.2,0.2,0.2,0.2,0.5c-0.2,0-0.2-0.3-0.5-0.3c0-0.7-0.5-1-0.5-1.7
			c0.3-0.1,0.3-0.5,0-0.5c0-0.3,0.5-0.2,0.8-0.3"/>
		<path class="st1" d="M97.7,368.8c-0.3-1.5-0.5-0.5-0.7-1.8"/>
		<path class="st1" d="M374.3,341.9c0.1-0.3,0.2-0.5,0.2-0.7h-0.2V341.9z"/>
		<path class="st1" d="M93.2,357.2c0.3,0,0.3,0.4,0,0.5c-0.5-0.4,0,3.3,0.7,2.5c0.3,0.2,0.1,0.9,0.7,0.7"/>
		<path class="st1" d="M89,358.2c-0.8,0.3-0.1,0.5-0.5,1.3h-0.2c-0.3,0-0.1,0.3,0,0.3c-0.2,0.8-0.5-0.3-0.7-0.3
			c-0.3,0.1-0.2,0.6-0.3,1c1,0,0.1,0.2,0.3,0.7c0.6-0.8,1.4-1.4,2-2.3C89.3,358.7,88.9,358.7,89,358.2"/>
		<path class="st1" d="M210.2,309.1c0,0.3,0,0.7,0.2,0.7c-0.1,0.8,0.4,1,0.5,1.5c-1.2-1.3-0.2,0.8,0.5,1.5c0.9,1,2.8,2,3.8,2.3h0.8
			h0.3c0,0.5,0.9,0.1,1.3,0.2c10,2.4,14-12.2,5-15.3c-1.1,0-1.5-0.7-2.8-0.5c-0.7-0.3-1.5-0.3-2.2,0c-4.4,0.2-6.8,2.4-7.5,6.3v0.2
			c-0.4,0.4-0.4,2.4,0,2.8C210,309,210,309.2,210.2,309.1"/>
	</g>
</g>
</svg>
